<svg width="173" height="43" viewBox="0 0 173 43" fill="none" xmlns="http://www.w3.org/2000/svg">
<path d="M21.4683 30.3012C20.5094 30.3008 19.5881 30.6842 18.9001 31.3699C18.2121 32.0557 17.8116 32.9898 17.7836 33.9738C16.2101 34.5567 14.5461 34.8392 12.8736 34.8074C12.7988 34.286 12.5755 33.799 12.2318 33.4076C11.8881 33.0162 11.4394 32.7379 10.942 32.6077C10.4446 32.4775 9.92083 32.5012 9.43654 32.6758C8.95225 32.8504 8.52906 33.1682 8.22024 33.5892C6.23273 32.5085 4.53751 30.9383 3.28652 29.0195C3.55643 28.6668 3.6953 28.2271 3.6783 27.7789C3.66129 27.3308 3.48952 26.9034 3.1937 26.5734C2.89789 26.2434 2.49735 26.0322 2.06374 25.9776C1.63013 25.923 1.19175 26.0286 0.827039 26.2755C0.462331 26.5224 0.195095 26.8944 0.0731423 27.3251C-0.0488104 27.7558 -0.0175119 28.217 0.161423 28.6261C0.340359 29.0353 0.655235 29.3657 1.04976 29.5583C1.44429 29.7509 1.89269 29.7931 2.31474 29.6773C3.6642 31.848 5.51911 33.6393 7.7119 34.8895C7.70047 34.9912 7.69462 35.0935 7.6944 35.1959C7.69445 35.7713 7.87543 36.3313 8.2104 36.7926C8.54538 37.2539 9.01647 37.5918 9.55357 37.7562C10.0907 37.9205 10.6651 37.9025 11.1913 37.7047C11.7176 37.5069 12.1677 37.1399 12.4745 36.6585C14.6402 37.0905 16.8568 37.1858 19.0501 36.9412C19.4997 37.3407 20.0368 37.6226 20.6155 37.7628C21.1943 37.903 21.7975 37.8973 22.3736 37.7462C22.9497 37.5951 23.4816 37.3031 23.9239 36.8951C24.3663 36.4872 24.7059 35.9753 24.9138 35.4034C25.1217 34.8314 25.1916 34.2163 25.1177 33.6106C25.0438 33.0049 24.8281 32.4265 24.4892 31.9249C24.1503 31.4233 23.6982 31.0133 23.1715 30.73C22.6448 30.4467 22.0592 30.2985 21.4645 30.298L21.4683 30.3012Z" fill="#0092CE"/>
<path d="M25.2973 15.0788C25.8092 15.9111 26.6169 16.5058 27.5489 16.7366C28.481 16.9674 29.464 16.8162 30.2891 16.315C31.6099 17.369 32.7317 18.6621 33.5991 20.1306C33.2101 20.4742 32.9287 20.9282 32.7903 21.4356C32.6519 21.9429 32.6627 22.481 32.8214 22.982C32.98 23.4831 33.2794 23.9248 33.6819 24.2516C34.0845 24.5785 34.5721 24.7758 35.0836 24.8189C35.2543 27.1204 34.8661 29.4294 33.9538 31.5391C33.5188 31.4931 33.0821 31.6076 32.7218 31.862C32.3614 32.1164 32.101 32.4942 31.9872 32.9276C31.8733 33.3611 31.9134 33.822 32.1003 34.2279C32.2871 34.6339 32.6086 34.9583 33.0071 35.1431C33.4057 35.3279 33.8552 35.3612 34.2754 35.2368C34.6956 35.1125 35.0591 34.8387 35.3006 34.4644C35.5422 34.0902 35.6461 33.6399 35.5939 33.1941C35.5417 32.7484 35.3367 32.3363 35.0155 32.0315C36.0823 29.7009 36.5668 27.1341 36.4251 24.5631C36.9533 24.3023 37.3802 23.8662 37.6368 23.3252C37.8934 22.7843 37.9645 22.1703 37.8388 21.5826C37.713 20.9949 37.3977 20.4681 36.9439 20.0874C36.4901 19.7066 35.9244 19.4944 35.3384 19.4849C34.5376 17.3742 33.4321 15.399 32.059 13.6259C32.1478 13.0223 32.0931 12.4056 31.8994 11.8285C31.7057 11.2514 31.3788 10.7309 30.9467 10.3116C30.5146 9.89234 29.9901 9.58663 29.4179 9.4206C28.8458 9.25456 28.243 9.23312 27.661 9.35814C27.0791 9.48315 26.5352 9.7509 26.0759 10.1385C25.6166 10.5261 25.2555 11.0221 25.0233 11.5841C24.7912 12.1461 24.695 12.7574 24.7429 13.3658C24.7909 13.9742 24.9815 14.5617 25.2986 15.0781L25.2973 15.0788Z" fill="#0092CE"/>
<path d="M10.2839 18.6359C10.7628 17.7831 10.899 16.7722 10.6637 15.818C10.4284 14.8637 9.84004 14.0412 9.02358 13.5251C9.31738 11.8341 9.91001 10.2126 10.7722 8.74061C11.2496 8.93405 11.7721 8.97823 12.2739 8.8676C12.7757 8.75698 13.2344 8.49648 13.5924 8.11889C13.9504 7.74129 14.1916 7.26346 14.2858 6.74547C14.3799 6.22748 14.3228 5.69246 14.1215 5.20772C16.0257 3.98064 18.1967 3.25762 20.4399 3.10339C20.6027 3.51995 20.9046 3.86342 21.2916 4.07232C21.6786 4.28122 22.1253 4.34193 22.5519 4.24357C22.9785 4.14522 23.357 3.89423 23.6198 3.53551C23.8826 3.1768 24.0125 2.73377 23.9862 2.28572C23.96 1.83767 23.7792 1.41384 23.4764 1.09009C23.1736 0.76634 22.7684 0.563785 22.3334 0.518691C21.8985 0.473596 21.462 0.588912 21.1023 0.843975C20.7425 1.09904 20.4829 1.47721 20.3699 1.91082C17.8643 2.02739 15.4264 2.78302 13.2766 4.10942C13.1965 4.04842 13.1131 3.99212 13.0268 3.94079C12.5412 3.65245 11.9778 3.53297 11.4206 3.60016C10.8635 3.66736 10.3424 3.91759 9.93513 4.31362C9.52783 4.70965 9.25612 5.23025 9.1605 5.79775C9.06488 6.36525 9.15047 6.94928 9.40453 7.46276C7.95867 9.17294 6.77148 11.0966 5.88281 13.1692C5.32119 13.3697 4.81517 13.7067 4.40795 14.1516C4.00074 14.5964 3.70443 15.1358 3.54432 15.7237C3.3842 16.3116 3.36504 16.9305 3.48847 17.5277C3.61191 18.1248 3.87427 18.6825 4.25316 19.1529C4.63205 19.6234 5.11623 19.9927 5.66432 20.2294C6.21241 20.4661 6.80815 20.5631 7.40067 20.5121C7.99319 20.4611 8.56489 20.2637 9.06695 19.9366C9.56902 19.6096 9.98655 19.1626 10.2839 18.634V18.6359Z" fill="#0092CE"/>
<path d="M14.4213 24.4012C14.4213 24.4012 13.0118 6.58999 30.7939 5.58847C30.7939 5.58847 12.5778 2.0261 11.4961 24.4012H14.4213Z" fill="#606060"/>
<path d="M24.3573 23.7202C24.3573 23.7202 10.2605 34.2028 0.196289 19.1185C0.196289 19.1185 6.68638 36.9522 25.8768 26.2894L24.3573 23.7202Z" fill="#606060"/>
<path d="M19.0791 15.3427C19.0791 15.3427 34.7946 23.0253 26.7183 39.3227C26.7183 39.3227 38.8572 24.9308 20.5474 12.744L19.0791 15.3427Z" fill="#606060"/>
<path d="M33.2856 10.5206C33.2856 10.5206 43.4829 19.8368 37.8965 30.0764C37.8965 30.0764 45.9722 21.0795 35.346 9.26962L33.2856 10.5206Z" fill="#606060"/>
<path d="M2.82302 14.0756C2.82302 14.0756 5.7227 0.381337 17.1559 0.350561C17.1559 0.350561 5.55655 -2.45584 0.751465 12.8458L2.82302 14.0756Z" fill="#606060"/>
<path d="M21.3131 39.3869C21.3131 39.3869 8.46538 44.122 2.37939 34.1851C2.37939 34.1851 6.21021 45.7699 21.3955 41.8414L21.3131 39.3869Z" fill="#606060"/>
<path d="M54.0395 7.73419V22.0485H62.7204V25.0697H50.8545V7.73419H54.0395Z" fill="#606060"/>
<path d="M77.5587 25.0697H64.9189V7.73419H77.5587V10.9042H68.079V14.891H77.2208V17.9366H68.079V21.8478H77.5587V25.0697Z" fill="#606060"/>
<path d="M85.3743 10.7061H80.019V7.73419H93.9135V10.7061H88.5588V25.0684H85.3737L85.3743 10.7061Z" fill="#606060"/>
<path d="M111.136 11.9193C110.557 10.9286 108.965 9.98739 107.131 9.98739C104.767 9.98739 103.634 11.003 103.634 12.2905C103.634 13.8011 105.371 14.2224 107.397 14.4705C110.918 14.9193 114.199 15.8574 114.199 19.993C114.199 23.8561 110.87 25.5154 107.108 25.5154C103.658 25.5154 101.005 24.4254 99.75 21.2561L102.404 19.8455C103.153 21.7523 105.105 22.5942 107.156 22.5942C109.158 22.5942 111.039 21.8761 111.039 19.9936C111.039 18.3592 109.375 17.6905 107.131 17.443C103.682 17.0217 100.498 16.0811 100.498 12.193C100.498 8.62682 103.924 7.1656 107.035 7.14124C109.664 7.14124 112.39 7.91062 113.668 10.5837L111.136 11.9193Z" fill="#606060"/>
<path d="M141.215 7.75906V17.6922C141.215 22.8216 138.152 25.4433 133.908 25.4433C129.856 25.4433 126.406 22.9171 126.406 17.6922V7.75906H129.566V17.6922C129.566 20.8128 131.303 22.4722 133.932 22.4722C136.562 22.4722 138.054 20.664 138.054 17.6922V7.75906H141.215Z" fill="#0092CE"/>
<path d="M154.747 11.9193C154.168 10.9286 152.576 9.98739 150.743 9.98739C148.38 9.98739 147.246 11.003 147.246 12.2905C147.246 13.8011 148.983 14.2224 151.009 14.4705C154.53 14.9193 157.811 15.8574 157.811 19.993C157.811 23.8561 154.482 25.5154 150.72 25.5154C147.27 25.5154 144.617 24.4254 143.363 21.2561L146.016 19.8455C146.765 21.7523 148.717 22.5942 150.768 22.5942C152.77 22.5942 154.652 21.8761 154.652 19.9936C154.652 18.3592 152.987 17.6905 150.744 17.443C147.295 17.0217 144.11 16.0811 144.11 12.193C144.11 8.62682 147.536 7.1656 150.647 7.14124C153.276 7.14124 156.002 7.91062 157.281 10.5837L154.747 11.9193Z" fill="#0092CE"/>
<path d="M172.863 25.0697H160.223V7.73419H172.863V10.9042H163.383V14.891H172.526V17.9366H163.383V21.8478H172.863V25.0697Z" fill="#0092CE"/>
<path d="M98.2391 7.13925H95.9346V12.956H98.2391V7.13925Z" fill="#606060"/>
<path d="M150.587 30.1972H50.856V31.6578H150.587V30.1972Z" fill="#606060"/>
<path d="M159.46 30.7743C159.49 31.1878 159.434 31.6033 159.295 31.9927C159.157 32.3822 158.938 32.7367 158.655 33.0324C158.372 33.3282 158.031 33.5583 157.654 33.7074C157.277 33.8565 156.873 33.9211 156.47 33.8969H154.121V27.7544H156.47C156.865 27.7302 157.26 27.7914 157.63 27.9339C158 28.0765 158.337 28.2972 158.619 28.5819C158.901 28.8666 159.121 29.2088 159.266 29.5865C159.411 29.9642 159.477 30.3688 159.46 30.7743ZM155.239 32.7831H156.469C156.968 32.77 157.443 32.5573 157.791 32.1903C158.14 31.8233 158.335 31.3311 158.335 30.8186C158.335 30.306 158.14 29.8138 157.791 29.4468C157.443 29.0798 156.968 28.8671 156.469 28.854H155.239V32.7831Z" fill="#606060"/>
<path d="M163.551 29.5705H164.55V33.8946H163.568L163.517 33.263C163.371 33.4989 163.169 33.6928 162.93 33.8263C162.69 33.9598 162.422 34.0285 162.15 34.026C161.57 34.0089 161.019 33.7593 160.616 33.3307C160.212 32.9021 159.988 32.3285 159.992 31.7325C159.995 31.1366 160.225 30.5656 160.633 30.1418C161.042 29.718 161.595 29.475 162.175 29.4647C162.439 29.4547 162.7 29.5139 162.935 29.6368C163.17 29.7597 163.37 29.9421 163.517 30.1668L163.551 29.5705ZM161.023 31.7281C161.012 31.9008 161.037 32.0739 161.095 32.2363C161.154 32.3986 161.245 32.5465 161.363 32.6704C161.48 32.7944 161.622 32.8917 161.779 32.956C161.935 33.0203 162.103 33.0502 162.272 33.0437C163.912 33.0437 163.912 30.4213 162.272 30.4213C162.104 30.4138 161.936 30.4426 161.779 30.506C161.623 30.5693 161.481 30.6657 161.364 30.7889C161.246 30.9122 161.154 31.0595 161.096 31.2213C161.037 31.3831 161.012 31.5557 161.023 31.7281Z" fill="#606060"/>
<path d="M166.721 28.3504V29.5783H167.883V30.499H166.712V32.3674C166.701 32.4462 166.707 32.5265 166.73 32.6026C166.753 32.6787 166.792 32.7487 166.844 32.8075C166.896 32.8663 166.961 32.9124 167.032 32.9425C167.104 32.9726 167.181 32.986 167.259 32.9816C167.434 32.9766 167.606 32.9317 167.763 32.8502L168.053 33.7626C167.78 33.88 167.487 33.9424 167.19 33.9466C166.983 33.9724 166.774 33.9491 166.577 33.8784C166.38 33.8078 166.202 33.6918 166.056 33.5393C165.91 33.3867 165.8 33.2018 165.734 32.9987C165.669 32.7957 165.65 32.5799 165.678 32.368V30.4996H164.893V29.5789H165.678V28.4652L166.721 28.3504Z" fill="#606060"/>
<path d="M172 29.5705H173V33.8946H172.017L171.966 33.263C171.82 33.499 171.618 33.693 171.379 33.8265C171.14 33.96 170.871 34.0287 170.599 34.026C170.019 34.0089 169.468 33.7593 169.065 33.3307C168.662 32.9021 168.438 32.3285 168.441 31.7325C168.444 31.1366 168.675 30.5657 169.083 30.1418C169.491 29.718 170.044 29.475 170.625 29.4647C170.888 29.4546 171.15 29.5138 171.384 29.6367C171.619 29.7596 171.819 29.9421 171.966 30.1668L172 29.5705ZM169.472 31.7281C169.461 31.9008 169.486 32.0739 169.545 32.2363C169.603 32.3986 169.694 32.5465 169.812 32.6705C169.93 32.7944 170.071 32.8917 170.228 32.956C170.384 33.0203 170.552 33.0502 170.721 33.0438C172.361 33.0438 172.361 30.4213 170.721 30.4213C170.553 30.4139 170.385 30.4428 170.229 30.5062C170.072 30.5695 169.931 30.666 169.813 30.7892C169.695 30.9124 169.604 31.0597 169.545 31.2214C169.486 31.3831 169.461 31.5558 169.472 31.7281Z" fill="#606060"/>
</svg>
