<svg width="22" height="22" viewBox="0 0 22 22" fill="none" xmlns="http://www.w3.org/2000/svg">
<path fill-rule="evenodd" clip-rule="evenodd" d="M19.3939 14.1713C21.2215 10.6706 19.4817 6.51814 17.4817 4.51819C13.9019 0.938381 8.09791 0.938381 4.51811 4.51819C0.938301 8.09799 0.938301 13.902 4.51811 17.4818C6.60314 19.5668 10.6845 21.2359 14.1724 19.3961C14.5309 19.207 14.7102 19.1124 14.7979 19.0772C15.168 18.9284 15.3627 18.9057 15.757 18.9655C15.8505 18.9797 15.9726 19.0114 16.217 19.0747C16.9501 19.2647 17.3167 19.3598 17.5839 19.3501C18.5446 19.3155 19.3155 18.5447 19.3501 17.584C19.3597 17.3168 19.2647 16.9503 19.0747 16.2172C19.0113 15.9729 18.9797 15.8506 18.9655 15.7578C18.9054 15.3634 18.927 15.1743 19.0745 14.8037C19.1093 14.7164 19.2041 14.5347 19.3939 14.1713ZM8.11967 10.8697C8.11967 11.376 7.70926 11.7864 7.203 11.7864C6.69674 11.7864 6.28634 11.376 6.28634 10.8697C6.28634 10.3635 6.69674 9.95308 7.203 9.95308C7.70926 9.95308 8.11967 10.3635 8.11967 10.8697ZM11.7863 10.8697C11.7863 11.376 11.3759 11.7864 10.8697 11.7864C10.3634 11.7864 9.953 11.376 9.953 10.8697C9.953 10.3635 10.3634 9.95308 10.8697 9.95308C11.3759 9.95308 11.7863 10.3635 11.7863 10.8697ZM14.5363 11.7864C15.0426 11.7864 15.453 11.376 15.453 10.8697C15.453 10.3635 15.0426 9.95308 14.5363 9.95308C14.0301 9.95308 13.6197 10.3635 13.6197 10.8697C13.6197 11.376 14.0301 11.7864 14.5363 11.7864Z" fill="#D1D1D1"/>
</svg>
