<svg width="22" height="22" viewBox="0 0 22 22" fill="none" xmlns="http://www.w3.org/2000/svg">
<path fill-rule="evenodd" clip-rule="evenodd" d="M11.0415 2.0625C12.725 2.06249 14.0446 2.06249 15.0916 2.17592C16.16 2.29167 17.0257 2.53213 17.7648 3.06914C18.2122 3.39424 18.6058 3.78775 18.9309 4.23522C19.4679 4.97435 19.7083 5.84003 19.8241 6.90844C19.9375 7.95538 19.9375 9.27498 19.9375 10.9584V11.0415C19.9375 12.7249 19.9375 14.0446 19.8241 15.0916C19.7083 16.16 19.4679 17.0257 18.9309 17.7648C18.6058 18.2122 18.2122 18.6058 17.7648 18.9309C17.0257 19.4679 16.16 19.7083 15.0916 19.8241C14.0446 19.9375 12.725 19.9375 11.0416 19.9375H10.9585C9.27505 19.9375 7.95538 19.9375 6.90844 19.8241C5.84003 19.7083 4.97435 19.4679 4.23522 18.9309C3.78775 18.6058 3.39424 18.2122 3.06914 17.7648C2.53213 17.0257 2.29167 16.16 2.17592 15.0916C2.06249 14.0446 2.06249 12.725 2.0625 11.0415V10.9585C2.06249 9.27503 2.06249 7.95539 2.17592 6.90844C2.29167 5.84003 2.53213 4.97435 3.06914 4.23522C3.39424 3.78775 3.78775 3.39424 4.23522 3.06914C4.97435 2.53213 5.84003 2.29167 6.90844 2.17592C7.9554 2.06249 9.27503 2.06249 10.9585 2.0625H11.0415ZM11.6875 6.41667C11.6875 6.03697 11.3797 5.72917 11 5.72917C10.6203 5.72917 10.3125 6.03697 10.3125 6.41667V9.73355L8.0485 7.46955C7.78002 7.20107 7.34472 7.20107 7.07623 7.46955C6.80775 7.73804 6.80775 8.17334 7.07623 8.44182L8.94691 10.3125H6.41667C6.03697 10.3125 5.72917 10.6203 5.72917 11C5.72917 11.3797 6.03697 11.6875 6.41667 11.6875H9.34023L7.07636 13.9514C6.80788 14.2198 6.80788 14.6552 7.07636 14.9236C7.34485 15.1921 7.78015 15.1921 8.04864 14.9236L10.3125 12.6598V15.5833C10.3125 15.963 10.6203 16.2708 11 16.2708C11.3797 16.2708 11.6875 15.963 11.6875 15.5833V13.0531L13.558 14.9236C13.8265 15.1921 14.2618 15.1921 14.5303 14.9236C14.7988 14.6552 14.7988 14.2198 14.5303 13.9514L12.2665 11.6875H15.5833C15.963 11.6875 16.2708 11.3797 16.2708 11C16.2708 10.6203 15.963 10.3125 15.5833 10.3125H12.6598L14.5304 8.44182C14.7989 8.17334 14.7989 7.73804 14.5304 7.46955C14.262 7.20107 13.8267 7.20107 13.5582 7.46955L11.6875 9.34023V6.41667Z" fill="#CFCFCF"/>
</svg>
