<svg width="20" height="21" viewBox="0 0 20 21" fill="none" xmlns="http://www.w3.org/2000/svg">
<path fill-rule="evenodd" clip-rule="evenodd" d="M19.1571 13.4596C21.1508 9.64068 19.2528 5.1107 17.0711 2.92893C13.1658 -0.976311 6.83418 -0.976311 2.92893 2.92893C-0.976311 6.83418 -0.976311 13.1658 2.92893 17.0711C5.20352 19.3457 9.65595 21.1664 13.4609 19.1594C13.852 18.9531 14.0476 18.8499 14.1432 18.8115C14.547 18.6491 14.7593 18.6244 15.1896 18.6897C15.2915 18.7051 15.4248 18.7397 15.6913 18.8088C16.4911 19.0161 16.8911 19.1197 17.1825 19.1092C18.2306 19.0715 19.0715 18.2306 19.1092 17.1825C19.1197 16.8911 19.0161 16.4912 18.8088 15.6915C18.7397 15.4249 18.7052 15.2916 18.6897 15.1903C18.6242 14.7601 18.6478 14.5538 18.8087 14.1495C18.8466 14.0543 18.9501 13.856 19.1571 13.4596ZM6.85791 9.85791C6.85791 10.4102 6.41019 10.8579 5.85791 10.8579C5.30563 10.8579 4.85791 10.4102 4.85791 9.85791C4.85791 9.30563 5.30563 8.85791 5.85791 8.85791C6.41019 8.85791 6.85791 9.30563 6.85791 9.85791ZM10.8579 9.85791C10.8579 10.4102 10.4102 10.8579 9.85791 10.8579C9.30563 10.8579 8.85791 10.4102 8.85791 9.85791C8.85791 9.30563 9.30563 8.85791 9.85791 8.85791C10.4102 8.85791 10.8579 9.30563 10.8579 9.85791ZM13.8579 10.8579C14.4102 10.8579 14.8579 10.4102 14.8579 9.85791C14.8579 9.30563 14.4102 8.85791 13.8579 8.85791C13.3056 8.85791 12.8579 9.30563 12.8579 9.85791C12.8579 10.4102 13.3056 10.8579 13.8579 10.8579Z" fill="#0092CE"/>
</svg>
